<mxfile host="app.diagrams.net" modified="2024-03-21T10:58:50.982Z" agent="Mozilla/5.0 (Windows NT 10.0; Win64; x64) AppleWebKit/537.36 (KHTML, like Gecko) Chrome/122.0.0.0 Safari/537.36" etag="N1E0ZW6ymsuKF5huAv2K" version="24.0.7" type="device">
  <diagram name="Page-1" id="AfB55F0KHx1KPyFVa28V">
    <mxGraphModel dx="1105" dy="586" grid="1" gridSize="10" guides="1" tooltips="1" connect="1" arrows="1" fold="1" page="1" pageScale="1" pageWidth="850" pageHeight="1100" math="0" shadow="0">
      <root>
        <mxCell id="0" />
        <mxCell id="1" parent="0" />
        <mxCell id="hUWCts7MsRGYEWysBDoO-5" style="edgeStyle=orthogonalEdgeStyle;rounded=0;orthogonalLoop=1;jettySize=auto;html=1;entryX=0.5;entryY=0;entryDx=0;entryDy=0;fontSize=16;" edge="1" parent="1" source="hUWCts7MsRGYEWysBDoO-1" target="hUWCts7MsRGYEWysBDoO-2">
          <mxGeometry relative="1" as="geometry" />
        </mxCell>
        <mxCell id="hUWCts7MsRGYEWysBDoO-1" value="start(s)" style="rounded=0;whiteSpace=wrap;html=1;fontSize=16;" vertex="1" parent="1">
          <mxGeometry x="365" y="50" width="120" height="60" as="geometry" />
        </mxCell>
        <mxCell id="hUWCts7MsRGYEWysBDoO-6" style="edgeStyle=orthogonalEdgeStyle;rounded=0;orthogonalLoop=1;jettySize=auto;html=1;fontSize=16;" edge="1" parent="1" source="hUWCts7MsRGYEWysBDoO-2" target="hUWCts7MsRGYEWysBDoO-3">
          <mxGeometry relative="1" as="geometry" />
        </mxCell>
        <mxCell id="hUWCts7MsRGYEWysBDoO-2" value="i:=1" style="rounded=0;whiteSpace=wrap;html=1;fontSize=16;" vertex="1" parent="1">
          <mxGeometry x="365" y="130" width="120" height="60" as="geometry" />
        </mxCell>
        <mxCell id="hUWCts7MsRGYEWysBDoO-7" style="edgeStyle=orthogonalEdgeStyle;rounded=0;orthogonalLoop=1;jettySize=auto;html=1;entryX=0.5;entryY=0;entryDx=0;entryDy=0;fontSize=16;" edge="1" parent="1" source="hUWCts7MsRGYEWysBDoO-3" target="hUWCts7MsRGYEWysBDoO-4">
          <mxGeometry relative="1" as="geometry" />
        </mxCell>
        <mxCell id="hUWCts7MsRGYEWysBDoO-3" value="j:=1" style="rounded=0;whiteSpace=wrap;html=1;fontSize=16;" vertex="1" parent="1">
          <mxGeometry x="365" y="210" width="120" height="60" as="geometry" />
        </mxCell>
        <mxCell id="hUWCts7MsRGYEWysBDoO-41" style="edgeStyle=orthogonalEdgeStyle;rounded=0;orthogonalLoop=1;jettySize=auto;html=1;fontSize=16;" edge="1" parent="1" source="hUWCts7MsRGYEWysBDoO-4" target="hUWCts7MsRGYEWysBDoO-8">
          <mxGeometry relative="1" as="geometry" />
        </mxCell>
        <mxCell id="hUWCts7MsRGYEWysBDoO-4" value="u:=0" style="rounded=0;whiteSpace=wrap;html=1;fontSize=16;" vertex="1" parent="1">
          <mxGeometry x="365" y="290" width="120" height="60" as="geometry" />
        </mxCell>
        <mxCell id="hUWCts7MsRGYEWysBDoO-43" style="edgeStyle=orthogonalEdgeStyle;rounded=0;orthogonalLoop=1;jettySize=auto;html=1;entryX=1;entryY=0.5;entryDx=0;entryDy=0;fontSize=16;" edge="1" parent="1" source="hUWCts7MsRGYEWysBDoO-8" target="hUWCts7MsRGYEWysBDoO-42">
          <mxGeometry relative="1" as="geometry">
            <Array as="points">
              <mxPoint x="550" y="410" />
              <mxPoint x="550" y="760" />
            </Array>
          </mxGeometry>
        </mxCell>
        <mxCell id="hUWCts7MsRGYEWysBDoO-44" value="0" style="edgeLabel;html=1;align=center;verticalAlign=middle;resizable=0;points=[];fontSize=16;" vertex="1" connectable="0" parent="hUWCts7MsRGYEWysBDoO-43">
          <mxGeometry x="-0.8114" y="-1" relative="1" as="geometry">
            <mxPoint as="offset" />
          </mxGeometry>
        </mxCell>
        <mxCell id="hUWCts7MsRGYEWysBDoO-8" value="i&amp;lt;14" style="ellipse;whiteSpace=wrap;html=1;fontSize=16;" vertex="1" parent="1">
          <mxGeometry x="365" y="370" width="120" height="80" as="geometry" />
        </mxCell>
        <mxCell id="hUWCts7MsRGYEWysBDoO-14" style="edgeStyle=orthogonalEdgeStyle;rounded=0;orthogonalLoop=1;jettySize=auto;html=1;entryX=0.5;entryY=0;entryDx=0;entryDy=0;fontSize=16;" edge="1" parent="1" source="hUWCts7MsRGYEWysBDoO-10" target="hUWCts7MsRGYEWysBDoO-11">
          <mxGeometry relative="1" as="geometry">
            <Array as="points">
              <mxPoint x="185" y="510" />
            </Array>
          </mxGeometry>
        </mxCell>
        <mxCell id="hUWCts7MsRGYEWysBDoO-15" value="1" style="edgeLabel;html=1;align=center;verticalAlign=middle;resizable=0;points=[];fontSize=16;" vertex="1" connectable="0" parent="hUWCts7MsRGYEWysBDoO-14">
          <mxGeometry x="-0.43" y="-1" relative="1" as="geometry">
            <mxPoint as="offset" />
          </mxGeometry>
        </mxCell>
        <mxCell id="hUWCts7MsRGYEWysBDoO-35" style="edgeStyle=orthogonalEdgeStyle;rounded=0;orthogonalLoop=1;jettySize=auto;html=1;fontSize=16;" edge="1" parent="1" source="hUWCts7MsRGYEWysBDoO-10" target="hUWCts7MsRGYEWysBDoO-23">
          <mxGeometry relative="1" as="geometry" />
        </mxCell>
        <mxCell id="hUWCts7MsRGYEWysBDoO-36" value="0" style="edgeLabel;html=1;align=center;verticalAlign=middle;resizable=0;points=[];fontSize=16;" vertex="1" connectable="0" parent="hUWCts7MsRGYEWysBDoO-35">
          <mxGeometry x="-0.2672" relative="1" as="geometry">
            <mxPoint as="offset" />
          </mxGeometry>
        </mxCell>
        <mxCell id="hUWCts7MsRGYEWysBDoO-10" value="j&amp;lt;14" style="ellipse;whiteSpace=wrap;html=1;fontSize=16;" vertex="1" parent="1">
          <mxGeometry x="245" y="470" width="120" height="80" as="geometry" />
        </mxCell>
        <mxCell id="hUWCts7MsRGYEWysBDoO-20" style="edgeStyle=orthogonalEdgeStyle;rounded=0;orthogonalLoop=1;jettySize=auto;html=1;fontSize=16;" edge="1" parent="1" source="hUWCts7MsRGYEWysBDoO-11" target="hUWCts7MsRGYEWysBDoO-16">
          <mxGeometry relative="1" as="geometry" />
        </mxCell>
        <mxCell id="hUWCts7MsRGYEWysBDoO-11" value="&lt;span style=&quot;line-height: 107%; font-size: 16px;&quot;&gt;m&lt;sub style=&quot;font-size: 16px;&quot;&gt;ij&lt;/sub&gt;:=c&amp;nbsp;&lt;/span&gt;" style="rounded=0;whiteSpace=wrap;html=1;fontSize=16;" vertex="1" parent="1">
          <mxGeometry x="125" y="570" width="120" height="60" as="geometry" />
        </mxCell>
        <mxCell id="hUWCts7MsRGYEWysBDoO-12" style="edgeStyle=orthogonalEdgeStyle;rounded=0;orthogonalLoop=1;jettySize=auto;html=1;entryX=0.5;entryY=0;entryDx=0;entryDy=0;fontSize=16;" edge="1" parent="1" source="hUWCts7MsRGYEWysBDoO-8" target="hUWCts7MsRGYEWysBDoO-10">
          <mxGeometry relative="1" as="geometry">
            <Array as="points">
              <mxPoint x="305" y="410" />
            </Array>
          </mxGeometry>
        </mxCell>
        <mxCell id="hUWCts7MsRGYEWysBDoO-13" value="1" style="edgeLabel;html=1;align=center;verticalAlign=middle;resizable=0;points=[];fontSize=16;" vertex="1" connectable="0" parent="hUWCts7MsRGYEWysBDoO-12">
          <mxGeometry x="-0.4343" y="-1" relative="1" as="geometry">
            <mxPoint as="offset" />
          </mxGeometry>
        </mxCell>
        <mxCell id="hUWCts7MsRGYEWysBDoO-21" style="edgeStyle=orthogonalEdgeStyle;rounded=0;orthogonalLoop=1;jettySize=auto;html=1;fontSize=16;" edge="1" parent="1" source="hUWCts7MsRGYEWysBDoO-16" target="hUWCts7MsRGYEWysBDoO-17">
          <mxGeometry relative="1" as="geometry" />
        </mxCell>
        <mxCell id="hUWCts7MsRGYEWysBDoO-16" value="u:=u+1" style="rounded=0;whiteSpace=wrap;html=1;fontSize=16;" vertex="1" parent="1">
          <mxGeometry x="125" y="650" width="120" height="60" as="geometry" />
        </mxCell>
        <mxCell id="hUWCts7MsRGYEWysBDoO-22" style="edgeStyle=orthogonalEdgeStyle;rounded=0;orthogonalLoop=1;jettySize=auto;html=1;entryX=0.5;entryY=1;entryDx=0;entryDy=0;fontSize=16;" edge="1" parent="1" source="hUWCts7MsRGYEWysBDoO-17" target="hUWCts7MsRGYEWysBDoO-10">
          <mxGeometry relative="1" as="geometry">
            <Array as="points">
              <mxPoint x="305" y="760" />
            </Array>
          </mxGeometry>
        </mxCell>
        <mxCell id="hUWCts7MsRGYEWysBDoO-17" value="j:=j+1" style="rounded=0;whiteSpace=wrap;html=1;fontSize=16;" vertex="1" parent="1">
          <mxGeometry x="125" y="730" width="120" height="60" as="geometry" />
        </mxCell>
        <mxCell id="hUWCts7MsRGYEWysBDoO-38" style="edgeStyle=orthogonalEdgeStyle;rounded=0;orthogonalLoop=1;jettySize=auto;html=1;fontSize=16;" edge="1" parent="1" source="hUWCts7MsRGYEWysBDoO-23" target="hUWCts7MsRGYEWysBDoO-37">
          <mxGeometry relative="1" as="geometry" />
        </mxCell>
        <mxCell id="hUWCts7MsRGYEWysBDoO-23" value="j:=0" style="rounded=0;whiteSpace=wrap;html=1;fontSize=16;" vertex="1" parent="1">
          <mxGeometry x="370" y="570" width="120" height="60" as="geometry" />
        </mxCell>
        <mxCell id="hUWCts7MsRGYEWysBDoO-24" value="&lt;font style=&quot;font-size: 16px;&quot;&gt;1&lt;/font&gt;" style="text;html=1;align=center;verticalAlign=middle;whiteSpace=wrap;rounded=0;fontSize=16;" vertex="1" parent="1">
          <mxGeometry x="290" y="30" width="60" height="30" as="geometry" />
        </mxCell>
        <mxCell id="hUWCts7MsRGYEWysBDoO-25" value="&lt;font style=&quot;font-size: 16px;&quot;&gt;2&lt;/font&gt;" style="text;html=1;align=center;verticalAlign=middle;whiteSpace=wrap;rounded=0;fontSize=16;" vertex="1" parent="1">
          <mxGeometry x="290" y="110" width="60" height="30" as="geometry" />
        </mxCell>
        <mxCell id="hUWCts7MsRGYEWysBDoO-26" value="&lt;font style=&quot;font-size: 16px;&quot;&gt;3&lt;/font&gt;" style="text;html=1;align=center;verticalAlign=middle;whiteSpace=wrap;rounded=0;fontSize=16;" vertex="1" parent="1">
          <mxGeometry x="290" y="190" width="60" height="30" as="geometry" />
        </mxCell>
        <mxCell id="hUWCts7MsRGYEWysBDoO-27" value="&lt;font style=&quot;font-size: 16px;&quot;&gt;4&lt;/font&gt;" style="text;html=1;align=center;verticalAlign=middle;whiteSpace=wrap;rounded=0;fontSize=16;" vertex="1" parent="1">
          <mxGeometry x="290" y="270" width="60" height="30" as="geometry" />
        </mxCell>
        <mxCell id="hUWCts7MsRGYEWysBDoO-28" value="&lt;font style=&quot;font-size: 16px;&quot;&gt;5&lt;/font&gt;" style="text;html=1;align=center;verticalAlign=middle;whiteSpace=wrap;rounded=0;fontSize=16;" vertex="1" parent="1">
          <mxGeometry x="290" y="350" width="60" height="30" as="geometry" />
        </mxCell>
        <mxCell id="hUWCts7MsRGYEWysBDoO-29" value="&lt;font style=&quot;font-size: 16px;&quot;&gt;6&lt;/font&gt;" style="text;html=1;align=center;verticalAlign=middle;whiteSpace=wrap;rounded=0;fontSize=16;" vertex="1" parent="1">
          <mxGeometry x="210" y="440" width="60" height="30" as="geometry" />
        </mxCell>
        <mxCell id="hUWCts7MsRGYEWysBDoO-31" value="&lt;font style=&quot;font-size: 16px;&quot;&gt;7&lt;/font&gt;" style="text;html=1;align=center;verticalAlign=middle;whiteSpace=wrap;rounded=0;fontSize=16;" vertex="1" parent="1">
          <mxGeometry x="60" y="550" width="60" height="30" as="geometry" />
        </mxCell>
        <mxCell id="hUWCts7MsRGYEWysBDoO-32" value="&lt;font style=&quot;font-size: 16px;&quot;&gt;8&lt;/font&gt;" style="text;html=1;align=center;verticalAlign=middle;whiteSpace=wrap;rounded=0;fontSize=16;" vertex="1" parent="1">
          <mxGeometry x="60" y="630" width="60" height="30" as="geometry" />
        </mxCell>
        <mxCell id="hUWCts7MsRGYEWysBDoO-33" value="&lt;font style=&quot;font-size: 16px;&quot;&gt;9&lt;/font&gt;" style="text;html=1;align=center;verticalAlign=middle;whiteSpace=wrap;rounded=0;fontSize=16;" vertex="1" parent="1">
          <mxGeometry x="60" y="710" width="60" height="30" as="geometry" />
        </mxCell>
        <mxCell id="hUWCts7MsRGYEWysBDoO-34" value="&lt;font style=&quot;font-size: 16px;&quot;&gt;10&lt;/font&gt;" style="text;html=1;align=center;verticalAlign=middle;whiteSpace=wrap;rounded=0;fontSize=16;" vertex="1" parent="1">
          <mxGeometry x="310" y="550" width="60" height="30" as="geometry" />
        </mxCell>
        <mxCell id="hUWCts7MsRGYEWysBDoO-40" style="edgeStyle=orthogonalEdgeStyle;rounded=0;orthogonalLoop=1;jettySize=auto;html=1;entryX=0.5;entryY=1;entryDx=0;entryDy=0;fontSize=16;" edge="1" parent="1" source="hUWCts7MsRGYEWysBDoO-37" target="hUWCts7MsRGYEWysBDoO-8">
          <mxGeometry relative="1" as="geometry">
            <Array as="points">
              <mxPoint x="520" y="680" />
              <mxPoint x="520" y="480" />
              <mxPoint x="425" y="480" />
            </Array>
          </mxGeometry>
        </mxCell>
        <mxCell id="hUWCts7MsRGYEWysBDoO-37" value="i:=i+1" style="rounded=0;whiteSpace=wrap;html=1;fontSize=16;" vertex="1" parent="1">
          <mxGeometry x="370" y="650" width="120" height="60" as="geometry" />
        </mxCell>
        <mxCell id="hUWCts7MsRGYEWysBDoO-39" value="&lt;font style=&quot;font-size: 16px;&quot;&gt;11&lt;/font&gt;" style="text;html=1;align=center;verticalAlign=middle;whiteSpace=wrap;rounded=0;fontSize=16;" vertex="1" parent="1">
          <mxGeometry x="310" y="630" width="60" height="30" as="geometry" />
        </mxCell>
        <mxCell id="hUWCts7MsRGYEWysBDoO-56" style="edgeStyle=orthogonalEdgeStyle;rounded=0;orthogonalLoop=1;jettySize=auto;html=1;fontSize=16;" edge="1" parent="1" source="hUWCts7MsRGYEWysBDoO-42" target="hUWCts7MsRGYEWysBDoO-46">
          <mxGeometry relative="1" as="geometry" />
        </mxCell>
        <mxCell id="hUWCts7MsRGYEWysBDoO-42" value="&lt;span style=&quot;line-height: 107%; font-size: 16px;&quot;&gt;&lt;font style=&quot;font-size: 16px;&quot;&gt;s:=l(m)*l(m)&amp;nbsp;&lt;/font&gt;&lt;/span&gt;" style="rounded=0;whiteSpace=wrap;html=1;fontSize=16;" vertex="1" parent="1">
          <mxGeometry x="370" y="730" width="120" height="60" as="geometry" />
        </mxCell>
        <mxCell id="hUWCts7MsRGYEWysBDoO-45" value="&lt;font style=&quot;font-size: 16px;&quot;&gt;12&lt;/font&gt;" style="text;html=1;align=center;verticalAlign=middle;whiteSpace=wrap;rounded=0;fontSize=16;" vertex="1" parent="1">
          <mxGeometry x="310" y="720" width="60" height="30" as="geometry" />
        </mxCell>
        <mxCell id="hUWCts7MsRGYEWysBDoO-57" style="edgeStyle=orthogonalEdgeStyle;rounded=0;orthogonalLoop=1;jettySize=auto;html=1;fontSize=16;" edge="1" parent="1" source="hUWCts7MsRGYEWysBDoO-46" target="hUWCts7MsRGYEWysBDoO-47">
          <mxGeometry relative="1" as="geometry" />
        </mxCell>
        <mxCell id="hUWCts7MsRGYEWysBDoO-46" value="&lt;span style=&quot;line-height: 107%; font-size: 16px;&quot;&gt;&lt;font style=&quot;font-size: 16px;&quot;&gt;r:=l(m)/2&lt;/font&gt;&lt;/span&gt;" style="rounded=0;whiteSpace=wrap;html=1;fontSize=16;" vertex="1" parent="1">
          <mxGeometry x="370" y="810" width="120" height="60" as="geometry" />
        </mxCell>
        <mxCell id="hUWCts7MsRGYEWysBDoO-58" style="edgeStyle=orthogonalEdgeStyle;rounded=0;orthogonalLoop=1;jettySize=auto;html=1;entryX=0.5;entryY=0;entryDx=0;entryDy=0;fontSize=16;" edge="1" parent="1" source="hUWCts7MsRGYEWysBDoO-47" target="hUWCts7MsRGYEWysBDoO-48">
          <mxGeometry relative="1" as="geometry" />
        </mxCell>
        <mxCell id="hUWCts7MsRGYEWysBDoO-47" value="&lt;span style=&quot;line-height: 107%; font-size: 16px;&quot;&gt;&lt;font style=&quot;font-size: 16px;&quot;&gt;c:=l(m)/2&lt;/font&gt;&lt;/span&gt;" style="rounded=0;whiteSpace=wrap;html=1;fontSize=16;" vertex="1" parent="1">
          <mxGeometry x="370" y="890" width="120" height="60" as="geometry" />
        </mxCell>
        <mxCell id="hUWCts7MsRGYEWysBDoO-59" style="edgeStyle=orthogonalEdgeStyle;rounded=0;orthogonalLoop=1;jettySize=auto;html=1;fontSize=16;" edge="1" parent="1" source="hUWCts7MsRGYEWysBDoO-48" target="hUWCts7MsRGYEWysBDoO-49">
          <mxGeometry relative="1" as="geometry" />
        </mxCell>
        <mxCell id="hUWCts7MsRGYEWysBDoO-48" value="t:=0" style="rounded=0;whiteSpace=wrap;html=1;fontSize=16;" vertex="1" parent="1">
          <mxGeometry x="370" y="970" width="120" height="60" as="geometry" />
        </mxCell>
        <mxCell id="hUWCts7MsRGYEWysBDoO-60" style="edgeStyle=orthogonalEdgeStyle;rounded=0;orthogonalLoop=1;jettySize=auto;html=1;fontSize=16;" edge="1" parent="1" source="hUWCts7MsRGYEWysBDoO-49" target="hUWCts7MsRGYEWysBDoO-50">
          <mxGeometry relative="1" as="geometry" />
        </mxCell>
        <mxCell id="hUWCts7MsRGYEWysBDoO-49" value="s:=1" style="rounded=0;whiteSpace=wrap;html=1;fontSize=16;" vertex="1" parent="1">
          <mxGeometry x="370" y="1050" width="120" height="60" as="geometry" />
        </mxCell>
        <mxCell id="hUWCts7MsRGYEWysBDoO-62" style="edgeStyle=orthogonalEdgeStyle;rounded=0;orthogonalLoop=1;jettySize=auto;html=1;entryX=0.5;entryY=0;entryDx=0;entryDy=0;fontSize=16;" edge="1" parent="1" source="hUWCts7MsRGYEWysBDoO-50" target="hUWCts7MsRGYEWysBDoO-61">
          <mxGeometry relative="1" as="geometry" />
        </mxCell>
        <mxCell id="hUWCts7MsRGYEWysBDoO-50" value="d:=1" style="rounded=0;whiteSpace=wrap;html=1;fontSize=16;" vertex="1" parent="1">
          <mxGeometry x="370" y="1130" width="120" height="60" as="geometry" />
        </mxCell>
        <mxCell id="hUWCts7MsRGYEWysBDoO-51" value="&lt;font style=&quot;font-size: 16px;&quot;&gt;13&lt;/font&gt;" style="text;html=1;align=center;verticalAlign=middle;whiteSpace=wrap;rounded=0;fontSize=16;" vertex="1" parent="1">
          <mxGeometry x="310" y="800" width="60" height="30" as="geometry" />
        </mxCell>
        <mxCell id="hUWCts7MsRGYEWysBDoO-52" value="&lt;font style=&quot;font-size: 16px;&quot;&gt;14&lt;/font&gt;" style="text;html=1;align=center;verticalAlign=middle;whiteSpace=wrap;rounded=0;fontSize=16;" vertex="1" parent="1">
          <mxGeometry x="310" y="870" width="60" height="30" as="geometry" />
        </mxCell>
        <mxCell id="hUWCts7MsRGYEWysBDoO-53" value="&lt;font style=&quot;font-size: 16px;&quot;&gt;15&lt;/font&gt;" style="text;html=1;align=center;verticalAlign=middle;whiteSpace=wrap;rounded=0;fontSize=16;" vertex="1" parent="1">
          <mxGeometry x="310" y="950" width="60" height="30" as="geometry" />
        </mxCell>
        <mxCell id="hUWCts7MsRGYEWysBDoO-54" value="&lt;font style=&quot;font-size: 16px;&quot;&gt;16&lt;/font&gt;" style="text;html=1;align=center;verticalAlign=middle;whiteSpace=wrap;rounded=0;fontSize=16;" vertex="1" parent="1">
          <mxGeometry x="310" y="1040" width="60" height="30" as="geometry" />
        </mxCell>
        <mxCell id="hUWCts7MsRGYEWysBDoO-55" value="&lt;font style=&quot;font-size: 16px;&quot;&gt;17&lt;/font&gt;" style="text;html=1;align=center;verticalAlign=middle;whiteSpace=wrap;rounded=0;fontSize=16;" vertex="1" parent="1">
          <mxGeometry x="310" y="1120" width="60" height="30" as="geometry" />
        </mxCell>
        <mxCell id="hUWCts7MsRGYEWysBDoO-64" style="edgeStyle=orthogonalEdgeStyle;rounded=0;orthogonalLoop=1;jettySize=auto;html=1;entryX=0.5;entryY=0;entryDx=0;entryDy=0;fontSize=16;" edge="1" parent="1" source="hUWCts7MsRGYEWysBDoO-61" target="hUWCts7MsRGYEWysBDoO-63">
          <mxGeometry relative="1" as="geometry">
            <Array as="points">
              <mxPoint x="310" y="1250" />
            </Array>
          </mxGeometry>
        </mxCell>
        <mxCell id="hUWCts7MsRGYEWysBDoO-65" value="1" style="edgeLabel;html=1;align=center;verticalAlign=middle;resizable=0;points=[];fontSize=16;" vertex="1" connectable="0" parent="hUWCts7MsRGYEWysBDoO-64">
          <mxGeometry x="-0.36" y="-1" relative="1" as="geometry">
            <mxPoint as="offset" />
          </mxGeometry>
        </mxCell>
        <mxCell id="hUWCts7MsRGYEWysBDoO-128" style="edgeStyle=orthogonalEdgeStyle;rounded=0;orthogonalLoop=1;jettySize=auto;html=1;fontSize=16;" edge="1" parent="1" source="hUWCts7MsRGYEWysBDoO-61" target="hUWCts7MsRGYEWysBDoO-127">
          <mxGeometry relative="1" as="geometry" />
        </mxCell>
        <mxCell id="hUWCts7MsRGYEWysBDoO-61" value="&lt;span style=&quot;line-height: 107%; font-family: &amp;quot;Times New Roman&amp;quot;, serif; font-size: 16px;&quot;&gt;&lt;font style=&quot;font-size: 16px;&quot;&gt;t≤s&amp;nbsp;&lt;/font&gt;&lt;/span&gt;" style="ellipse;whiteSpace=wrap;html=1;fontSize=16;" vertex="1" parent="1">
          <mxGeometry x="370" y="1210" width="120" height="80" as="geometry" />
        </mxCell>
        <mxCell id="hUWCts7MsRGYEWysBDoO-68" style="edgeStyle=orthogonalEdgeStyle;rounded=0;orthogonalLoop=1;jettySize=auto;html=1;fontSize=16;" edge="1" parent="1" source="hUWCts7MsRGYEWysBDoO-63" target="hUWCts7MsRGYEWysBDoO-66">
          <mxGeometry relative="1" as="geometry" />
        </mxCell>
        <mxCell id="hUWCts7MsRGYEWysBDoO-63" value="i:=0" style="rounded=0;whiteSpace=wrap;html=1;fontSize=16;" vertex="1" parent="1">
          <mxGeometry x="250" y="1310" width="120" height="60" as="geometry" />
        </mxCell>
        <mxCell id="hUWCts7MsRGYEWysBDoO-69" style="edgeStyle=orthogonalEdgeStyle;rounded=0;orthogonalLoop=1;jettySize=auto;html=1;fontSize=16;" edge="1" parent="1" source="hUWCts7MsRGYEWysBDoO-66" target="hUWCts7MsRGYEWysBDoO-67">
          <mxGeometry relative="1" as="geometry">
            <Array as="points">
              <mxPoint x="310" y="1520" />
            </Array>
          </mxGeometry>
        </mxCell>
        <mxCell id="hUWCts7MsRGYEWysBDoO-70" value="1" style="edgeLabel;html=1;align=center;verticalAlign=middle;resizable=0;points=[];fontSize=16;" vertex="1" connectable="0" parent="hUWCts7MsRGYEWysBDoO-69">
          <mxGeometry x="-0.2267" y="-2" relative="1" as="geometry">
            <mxPoint as="offset" />
          </mxGeometry>
        </mxCell>
        <mxCell id="hUWCts7MsRGYEWysBDoO-114" style="edgeStyle=orthogonalEdgeStyle;rounded=0;orthogonalLoop=1;jettySize=auto;html=1;fontSize=16;" edge="1" parent="1" source="hUWCts7MsRGYEWysBDoO-66" target="hUWCts7MsRGYEWysBDoO-113">
          <mxGeometry relative="1" as="geometry" />
        </mxCell>
        <mxCell id="hUWCts7MsRGYEWysBDoO-115" value="0" style="edgeLabel;html=1;align=center;verticalAlign=middle;resizable=0;points=[];fontSize=16;" vertex="1" connectable="0" parent="hUWCts7MsRGYEWysBDoO-114">
          <mxGeometry x="-0.7007" y="-1" relative="1" as="geometry">
            <mxPoint as="offset" />
          </mxGeometry>
        </mxCell>
        <mxCell id="hUWCts7MsRGYEWysBDoO-66" value="i&amp;lt;s" style="ellipse;whiteSpace=wrap;html=1;fontSize=16;" vertex="1" parent="1">
          <mxGeometry x="250" y="1390" width="120" height="80" as="geometry" />
        </mxCell>
        <mxCell id="hUWCts7MsRGYEWysBDoO-72" style="edgeStyle=orthogonalEdgeStyle;rounded=0;orthogonalLoop=1;jettySize=auto;html=1;fontSize=16;" edge="1" parent="1" source="hUWCts7MsRGYEWysBDoO-67" target="hUWCts7MsRGYEWysBDoO-71">
          <mxGeometry relative="1" as="geometry" />
        </mxCell>
        <mxCell id="hUWCts7MsRGYEWysBDoO-67" value="t:=t+1" style="rounded=0;whiteSpace=wrap;html=1;fontSize=16;" vertex="1" parent="1">
          <mxGeometry x="130" y="1490" width="120" height="60" as="geometry" />
        </mxCell>
        <mxCell id="hUWCts7MsRGYEWysBDoO-78" style="edgeStyle=orthogonalEdgeStyle;rounded=0;orthogonalLoop=1;jettySize=auto;html=1;fontSize=16;" edge="1" parent="1" source="hUWCts7MsRGYEWysBDoO-71" target="hUWCts7MsRGYEWysBDoO-61">
          <mxGeometry relative="1" as="geometry" />
        </mxCell>
        <mxCell id="hUWCts7MsRGYEWysBDoO-79" value="1" style="edgeLabel;html=1;align=center;verticalAlign=middle;resizable=0;points=[];fontSize=16;" vertex="1" connectable="0" parent="hUWCts7MsRGYEWysBDoO-78">
          <mxGeometry x="-0.8656" y="-1" relative="1" as="geometry">
            <mxPoint as="offset" />
          </mxGeometry>
        </mxCell>
        <mxCell id="hUWCts7MsRGYEWysBDoO-81" style="edgeStyle=orthogonalEdgeStyle;rounded=0;orthogonalLoop=1;jettySize=auto;html=1;entryX=0.5;entryY=0;entryDx=0;entryDy=0;fontSize=16;" edge="1" parent="1" source="hUWCts7MsRGYEWysBDoO-71" target="hUWCts7MsRGYEWysBDoO-80">
          <mxGeometry relative="1" as="geometry" />
        </mxCell>
        <mxCell id="hUWCts7MsRGYEWysBDoO-90" value="0" style="edgeLabel;html=1;align=center;verticalAlign=middle;resizable=0;points=[];fontSize=16;" vertex="1" connectable="0" parent="hUWCts7MsRGYEWysBDoO-81">
          <mxGeometry x="0.5758" y="-1" relative="1" as="geometry">
            <mxPoint x="1" y="-7" as="offset" />
          </mxGeometry>
        </mxCell>
        <mxCell id="hUWCts7MsRGYEWysBDoO-71" value="t&amp;gt;s" style="ellipse;whiteSpace=wrap;html=1;fontSize=16;" vertex="1" parent="1">
          <mxGeometry x="130" y="1570" width="120" height="80" as="geometry" />
        </mxCell>
        <mxCell id="hUWCts7MsRGYEWysBDoO-73" value="&lt;font style=&quot;font-size: 16px;&quot;&gt;18&lt;/font&gt;" style="text;html=1;align=center;verticalAlign=middle;whiteSpace=wrap;rounded=0;fontSize=16;" vertex="1" parent="1">
          <mxGeometry x="310" y="1200" width="60" height="30" as="geometry" />
        </mxCell>
        <mxCell id="hUWCts7MsRGYEWysBDoO-74" value="&lt;font style=&quot;font-size: 16px;&quot;&gt;19&lt;/font&gt;" style="text;html=1;align=center;verticalAlign=middle;whiteSpace=wrap;rounded=0;fontSize=16;" vertex="1" parent="1">
          <mxGeometry x="185" y="1280" width="60" height="30" as="geometry" />
        </mxCell>
        <mxCell id="hUWCts7MsRGYEWysBDoO-75" value="&lt;font style=&quot;font-size: 16px;&quot;&gt;20&lt;/font&gt;" style="text;html=1;align=center;verticalAlign=middle;whiteSpace=wrap;rounded=0;fontSize=16;" vertex="1" parent="1">
          <mxGeometry x="185" y="1380" width="60" height="30" as="geometry" />
        </mxCell>
        <mxCell id="hUWCts7MsRGYEWysBDoO-76" value="&lt;font style=&quot;font-size: 16px;&quot;&gt;21&lt;/font&gt;" style="text;html=1;align=center;verticalAlign=middle;whiteSpace=wrap;rounded=0;fontSize=16;" vertex="1" parent="1">
          <mxGeometry x="60" y="1470" width="60" height="30" as="geometry" />
        </mxCell>
        <mxCell id="hUWCts7MsRGYEWysBDoO-77" value="&lt;font style=&quot;font-size: 16px;&quot;&gt;22&lt;/font&gt;" style="text;html=1;align=center;verticalAlign=middle;whiteSpace=wrap;rounded=0;fontSize=16;" vertex="1" parent="1">
          <mxGeometry x="60" y="1560" width="60" height="30" as="geometry" />
        </mxCell>
        <mxCell id="hUWCts7MsRGYEWysBDoO-84" style="edgeStyle=orthogonalEdgeStyle;rounded=0;orthogonalLoop=1;jettySize=auto;html=1;fontSize=16;" edge="1" parent="1" source="hUWCts7MsRGYEWysBDoO-80" target="hUWCts7MsRGYEWysBDoO-82">
          <mxGeometry relative="1" as="geometry" />
        </mxCell>
        <mxCell id="hUWCts7MsRGYEWysBDoO-80" value="&lt;span style=&quot;line-height: 107%; font-family: &amp;quot;Times New Roman&amp;quot;, serif; font-size: 16px;&quot;&gt;p(m&lt;sub style=&quot;font-size: 16px;&quot;&gt;rc&lt;/sub&gt;)&amp;nbsp;&lt;/span&gt;" style="rounded=0;whiteSpace=wrap;html=1;fontSize=16;" vertex="1" parent="1">
          <mxGeometry x="130" y="1680" width="120" height="60" as="geometry" />
        </mxCell>
        <mxCell id="hUWCts7MsRGYEWysBDoO-85" style="edgeStyle=orthogonalEdgeStyle;rounded=0;orthogonalLoop=1;jettySize=auto;html=1;fontSize=16;" edge="1" parent="1" source="hUWCts7MsRGYEWysBDoO-82" target="hUWCts7MsRGYEWysBDoO-83">
          <mxGeometry relative="1" as="geometry" />
        </mxCell>
        <mxCell id="hUWCts7MsRGYEWysBDoO-82" value="c:=c+d" style="rounded=0;whiteSpace=wrap;html=1;fontSize=16;" vertex="1" parent="1">
          <mxGeometry x="130" y="1760" width="120" height="60" as="geometry" />
        </mxCell>
        <mxCell id="hUWCts7MsRGYEWysBDoO-86" style="edgeStyle=orthogonalEdgeStyle;rounded=0;orthogonalLoop=1;jettySize=auto;html=1;entryX=0;entryY=0.5;entryDx=0;entryDy=0;fontSize=16;" edge="1" parent="1" source="hUWCts7MsRGYEWysBDoO-83" target="hUWCts7MsRGYEWysBDoO-66">
          <mxGeometry relative="1" as="geometry">
            <Array as="points">
              <mxPoint x="60" y="1860" />
              <mxPoint x="60" y="1430" />
            </Array>
          </mxGeometry>
        </mxCell>
        <mxCell id="hUWCts7MsRGYEWysBDoO-83" value="i:=i+1" style="rounded=0;whiteSpace=wrap;html=1;fontSize=16;" vertex="1" parent="1">
          <mxGeometry x="130" y="1840" width="120" height="60" as="geometry" />
        </mxCell>
        <mxCell id="hUWCts7MsRGYEWysBDoO-87" value="23" style="text;html=1;align=center;verticalAlign=middle;whiteSpace=wrap;rounded=0;fontSize=16;" vertex="1" parent="1">
          <mxGeometry x="60" y="1670" width="60" height="30" as="geometry" />
        </mxCell>
        <mxCell id="hUWCts7MsRGYEWysBDoO-88" value="&lt;font style=&quot;font-size: 16px;&quot;&gt;24&lt;/font&gt;" style="text;html=1;align=center;verticalAlign=middle;whiteSpace=wrap;rounded=0;fontSize=16;" vertex="1" parent="1">
          <mxGeometry x="60" y="1750" width="60" height="30" as="geometry" />
        </mxCell>
        <mxCell id="hUWCts7MsRGYEWysBDoO-89" value="&lt;font style=&quot;font-size: 16px;&quot;&gt;25&lt;/font&gt;" style="text;html=1;align=center;verticalAlign=middle;whiteSpace=wrap;rounded=0;fontSize=16;" vertex="1" parent="1">
          <mxGeometry x="60" y="1820" width="60" height="30" as="geometry" />
        </mxCell>
        <mxCell id="hUWCts7MsRGYEWysBDoO-91" style="edgeStyle=orthogonalEdgeStyle;rounded=0;orthogonalLoop=1;jettySize=auto;html=1;fontSize=16;" edge="1" parent="1" source="hUWCts7MsRGYEWysBDoO-93" target="hUWCts7MsRGYEWysBDoO-95">
          <mxGeometry relative="1" as="geometry">
            <Array as="points">
              <mxPoint x="545" y="1610" />
            </Array>
          </mxGeometry>
        </mxCell>
        <mxCell id="hUWCts7MsRGYEWysBDoO-92" value="1" style="edgeLabel;html=1;align=center;verticalAlign=middle;resizable=0;points=[];fontSize=16;" vertex="1" connectable="0" parent="hUWCts7MsRGYEWysBDoO-91">
          <mxGeometry x="-0.2267" y="-2" relative="1" as="geometry">
            <mxPoint as="offset" />
          </mxGeometry>
        </mxCell>
        <mxCell id="hUWCts7MsRGYEWysBDoO-131" style="edgeStyle=orthogonalEdgeStyle;rounded=0;orthogonalLoop=1;jettySize=auto;html=1;" edge="1" parent="1" source="hUWCts7MsRGYEWysBDoO-93" target="hUWCts7MsRGYEWysBDoO-120">
          <mxGeometry relative="1" as="geometry">
            <Array as="points">
              <mxPoint x="460" y="1520" />
              <mxPoint x="460" y="1755" />
              <mxPoint x="425" y="1755" />
            </Array>
          </mxGeometry>
        </mxCell>
        <mxCell id="hUWCts7MsRGYEWysBDoO-132" value="0" style="edgeLabel;html=1;align=center;verticalAlign=middle;resizable=0;points=[];fontSize=16;" vertex="1" connectable="0" parent="hUWCts7MsRGYEWysBDoO-131">
          <mxGeometry x="-0.7096" y="-1" relative="1" as="geometry">
            <mxPoint as="offset" />
          </mxGeometry>
        </mxCell>
        <mxCell id="hUWCts7MsRGYEWysBDoO-93" value="i&amp;lt;s" style="ellipse;whiteSpace=wrap;html=1;fontSize=16;" vertex="1" parent="1">
          <mxGeometry x="485" y="1480" width="120" height="80" as="geometry" />
        </mxCell>
        <mxCell id="hUWCts7MsRGYEWysBDoO-94" style="edgeStyle=orthogonalEdgeStyle;rounded=0;orthogonalLoop=1;jettySize=auto;html=1;fontSize=16;" edge="1" parent="1" source="hUWCts7MsRGYEWysBDoO-95" target="hUWCts7MsRGYEWysBDoO-99">
          <mxGeometry relative="1" as="geometry" />
        </mxCell>
        <mxCell id="hUWCts7MsRGYEWysBDoO-95" value="t:=t+1" style="rounded=0;whiteSpace=wrap;html=1;fontSize=16;" vertex="1" parent="1">
          <mxGeometry x="615" y="1600" width="120" height="60" as="geometry" />
        </mxCell>
        <mxCell id="hUWCts7MsRGYEWysBDoO-97" style="edgeStyle=orthogonalEdgeStyle;rounded=0;orthogonalLoop=1;jettySize=auto;html=1;entryX=0.5;entryY=0;entryDx=0;entryDy=0;fontSize=16;" edge="1" parent="1" source="hUWCts7MsRGYEWysBDoO-99" target="hUWCts7MsRGYEWysBDoO-103">
          <mxGeometry relative="1" as="geometry" />
        </mxCell>
        <mxCell id="hUWCts7MsRGYEWysBDoO-98" value="0" style="edgeLabel;html=1;align=center;verticalAlign=middle;resizable=0;points=[];fontSize=16;" vertex="1" connectable="0" parent="hUWCts7MsRGYEWysBDoO-97">
          <mxGeometry x="0.5758" y="-1" relative="1" as="geometry">
            <mxPoint x="1" y="-7" as="offset" />
          </mxGeometry>
        </mxCell>
        <mxCell id="hUWCts7MsRGYEWysBDoO-117" style="edgeStyle=orthogonalEdgeStyle;rounded=0;orthogonalLoop=1;jettySize=auto;html=1;entryX=0.5;entryY=1;entryDx=0;entryDy=0;fontSize=16;" edge="1" parent="1" source="hUWCts7MsRGYEWysBDoO-99" target="hUWCts7MsRGYEWysBDoO-61">
          <mxGeometry relative="1" as="geometry" />
        </mxCell>
        <mxCell id="hUWCts7MsRGYEWysBDoO-133" value="&lt;font style=&quot;font-size: 16px;&quot;&gt;1&lt;/font&gt;" style="edgeLabel;html=1;align=center;verticalAlign=middle;resizable=0;points=[];" vertex="1" connectable="0" parent="hUWCts7MsRGYEWysBDoO-117">
          <mxGeometry x="-0.7487" y="-1" relative="1" as="geometry">
            <mxPoint as="offset" />
          </mxGeometry>
        </mxCell>
        <mxCell id="hUWCts7MsRGYEWysBDoO-99" value="t&amp;gt;s" style="ellipse;whiteSpace=wrap;html=1;fontSize=16;" vertex="1" parent="1">
          <mxGeometry x="615" y="1680" width="120" height="80" as="geometry" />
        </mxCell>
        <mxCell id="hUWCts7MsRGYEWysBDoO-100" value="&lt;font style=&quot;font-size: 16px;&quot;&gt;28&lt;/font&gt;" style="text;html=1;align=center;verticalAlign=middle;whiteSpace=wrap;rounded=0;fontSize=16;" vertex="1" parent="1">
          <mxGeometry x="545" y="1580" width="60" height="30" as="geometry" />
        </mxCell>
        <mxCell id="hUWCts7MsRGYEWysBDoO-101" value="&lt;font style=&quot;font-size: 16px;&quot;&gt;29&lt;/font&gt;" style="text;html=1;align=center;verticalAlign=middle;whiteSpace=wrap;rounded=0;fontSize=16;" vertex="1" parent="1">
          <mxGeometry x="545" y="1670" width="60" height="30" as="geometry" />
        </mxCell>
        <mxCell id="hUWCts7MsRGYEWysBDoO-102" style="edgeStyle=orthogonalEdgeStyle;rounded=0;orthogonalLoop=1;jettySize=auto;html=1;fontSize=16;" edge="1" parent="1" source="hUWCts7MsRGYEWysBDoO-103" target="hUWCts7MsRGYEWysBDoO-105">
          <mxGeometry relative="1" as="geometry" />
        </mxCell>
        <mxCell id="hUWCts7MsRGYEWysBDoO-103" value="&lt;span style=&quot;line-height: 107%; font-family: &amp;quot;Times New Roman&amp;quot;, serif; font-size: 16px;&quot;&gt;p(m&lt;sub style=&quot;font-size: 16px;&quot;&gt;rc&lt;/sub&gt;)&amp;nbsp;&lt;/span&gt;" style="rounded=0;whiteSpace=wrap;html=1;fontSize=16;" vertex="1" parent="1">
          <mxGeometry x="615" y="1790" width="120" height="60" as="geometry" />
        </mxCell>
        <mxCell id="hUWCts7MsRGYEWysBDoO-104" style="edgeStyle=orthogonalEdgeStyle;rounded=0;orthogonalLoop=1;jettySize=auto;html=1;fontSize=16;" edge="1" parent="1" source="hUWCts7MsRGYEWysBDoO-105" target="hUWCts7MsRGYEWysBDoO-107">
          <mxGeometry relative="1" as="geometry" />
        </mxCell>
        <mxCell id="hUWCts7MsRGYEWysBDoO-105" value="r:=r+d" style="rounded=0;whiteSpace=wrap;html=1;fontSize=16;" vertex="1" parent="1">
          <mxGeometry x="615" y="1870" width="120" height="60" as="geometry" />
        </mxCell>
        <mxCell id="hUWCts7MsRGYEWysBDoO-130" style="edgeStyle=orthogonalEdgeStyle;rounded=0;orthogonalLoop=1;jettySize=auto;html=1;entryX=1;entryY=0.5;entryDx=0;entryDy=0;" edge="1" parent="1" source="hUWCts7MsRGYEWysBDoO-107" target="hUWCts7MsRGYEWysBDoO-93">
          <mxGeometry relative="1" as="geometry">
            <Array as="points">
              <mxPoint x="770" y="1980" />
              <mxPoint x="770" y="1520" />
            </Array>
          </mxGeometry>
        </mxCell>
        <mxCell id="hUWCts7MsRGYEWysBDoO-107" value="i:=i+1" style="rounded=0;whiteSpace=wrap;html=1;fontSize=16;" vertex="1" parent="1">
          <mxGeometry x="615" y="1950" width="120" height="60" as="geometry" />
        </mxCell>
        <mxCell id="hUWCts7MsRGYEWysBDoO-108" value="30" style="text;html=1;align=center;verticalAlign=middle;whiteSpace=wrap;rounded=0;fontSize=16;" vertex="1" parent="1">
          <mxGeometry x="545" y="1780" width="60" height="30" as="geometry" />
        </mxCell>
        <mxCell id="hUWCts7MsRGYEWysBDoO-109" value="&lt;font style=&quot;font-size: 16px;&quot;&gt;31&lt;/font&gt;" style="text;html=1;align=center;verticalAlign=middle;whiteSpace=wrap;rounded=0;fontSize=16;" vertex="1" parent="1">
          <mxGeometry x="545" y="1860" width="60" height="30" as="geometry" />
        </mxCell>
        <mxCell id="hUWCts7MsRGYEWysBDoO-110" value="&lt;font style=&quot;font-size: 16px;&quot;&gt;32&lt;/font&gt;" style="text;html=1;align=center;verticalAlign=middle;whiteSpace=wrap;rounded=0;fontSize=16;" vertex="1" parent="1">
          <mxGeometry x="545" y="1930" width="60" height="30" as="geometry" />
        </mxCell>
        <mxCell id="hUWCts7MsRGYEWysBDoO-116" style="edgeStyle=orthogonalEdgeStyle;rounded=0;orthogonalLoop=1;jettySize=auto;html=1;entryX=0.5;entryY=0;entryDx=0;entryDy=0;fontSize=16;" edge="1" parent="1" source="hUWCts7MsRGYEWysBDoO-113" target="hUWCts7MsRGYEWysBDoO-93">
          <mxGeometry relative="1" as="geometry" />
        </mxCell>
        <mxCell id="hUWCts7MsRGYEWysBDoO-113" value="i:=0" style="rounded=0;whiteSpace=wrap;html=1;fontSize=16;" vertex="1" parent="1">
          <mxGeometry x="485" y="1400" width="120" height="60" as="geometry" />
        </mxCell>
        <mxCell id="hUWCts7MsRGYEWysBDoO-118" value="&lt;font style=&quot;font-size: 16px;&quot;&gt;27&lt;/font&gt;" style="text;html=1;align=center;verticalAlign=middle;whiteSpace=wrap;rounded=0;fontSize=16;" vertex="1" parent="1">
          <mxGeometry x="440" y="1480" width="60" height="30" as="geometry" />
        </mxCell>
        <mxCell id="hUWCts7MsRGYEWysBDoO-119" value="&lt;font style=&quot;font-size: 16px;&quot;&gt;26&lt;/font&gt;" style="text;html=1;align=center;verticalAlign=middle;whiteSpace=wrap;rounded=0;fontSize=16;" vertex="1" parent="1">
          <mxGeometry x="440" y="1380" width="60" height="30" as="geometry" />
        </mxCell>
        <mxCell id="hUWCts7MsRGYEWysBDoO-122" style="edgeStyle=orthogonalEdgeStyle;rounded=0;orthogonalLoop=1;jettySize=auto;html=1;entryX=0.5;entryY=0;entryDx=0;entryDy=0;fontSize=16;" edge="1" parent="1" source="hUWCts7MsRGYEWysBDoO-120" target="hUWCts7MsRGYEWysBDoO-121">
          <mxGeometry relative="1" as="geometry" />
        </mxCell>
        <mxCell id="hUWCts7MsRGYEWysBDoO-120" value="s:=s+1" style="rounded=0;whiteSpace=wrap;html=1;fontSize=16;" vertex="1" parent="1">
          <mxGeometry x="365" y="1950" width="120" height="60" as="geometry" />
        </mxCell>
        <mxCell id="hUWCts7MsRGYEWysBDoO-124" style="edgeStyle=orthogonalEdgeStyle;rounded=0;orthogonalLoop=1;jettySize=auto;html=1;fontSize=16;" edge="1" parent="1" source="hUWCts7MsRGYEWysBDoO-121" target="hUWCts7MsRGYEWysBDoO-61">
          <mxGeometry relative="1" as="geometry">
            <Array as="points">
              <mxPoint x="320" y="2060" />
              <mxPoint x="320" y="1660" />
              <mxPoint x="430" y="1660" />
            </Array>
          </mxGeometry>
        </mxCell>
        <mxCell id="hUWCts7MsRGYEWysBDoO-121" value="d:=d*-1" style="rounded=0;whiteSpace=wrap;html=1;fontSize=16;" vertex="1" parent="1">
          <mxGeometry x="365" y="2030" width="120" height="60" as="geometry" />
        </mxCell>
        <mxCell id="hUWCts7MsRGYEWysBDoO-125" value="&lt;font style=&quot;font-size: 16px;&quot;&gt;33&lt;/font&gt;" style="text;html=1;align=center;verticalAlign=middle;whiteSpace=wrap;rounded=0;fontSize=16;" vertex="1" parent="1">
          <mxGeometry x="310" y="1930" width="60" height="30" as="geometry" />
        </mxCell>
        <mxCell id="hUWCts7MsRGYEWysBDoO-126" value="&lt;font style=&quot;font-size: 16px;&quot;&gt;34&lt;/font&gt;" style="text;html=1;align=center;verticalAlign=middle;whiteSpace=wrap;rounded=0;fontSize=16;" vertex="1" parent="1">
          <mxGeometry x="310" y="2010" width="60" height="30" as="geometry" />
        </mxCell>
        <mxCell id="hUWCts7MsRGYEWysBDoO-127" value="stop(s)" style="rounded=0;whiteSpace=wrap;html=1;fontSize=16;" vertex="1" parent="1">
          <mxGeometry x="540" y="1220" width="120" height="60" as="geometry" />
        </mxCell>
        <mxCell id="hUWCts7MsRGYEWysBDoO-129" value="&lt;font style=&quot;font-size: 16px;&quot;&gt;35&lt;/font&gt;" style="text;html=1;align=center;verticalAlign=middle;whiteSpace=wrap;rounded=0;fontSize=16;" vertex="1" parent="1">
          <mxGeometry x="485" y="1200" width="60" height="30" as="geometry" />
        </mxCell>
      </root>
    </mxGraphModel>
  </diagram>
</mxfile>
